<svg width="704" height="181" viewBox="0 0 704 181" fill="none" xmlns="http://www.w3.org/2000/svg">
<path d="M80.56 77C78.21 70.96 74.09 66.48 68.01 63.32C66.3 62.46 64.57 61.69 62.87 61.05C61.17 60.4 59.41 59.79 57.61 59.22C55.59 58.53 53.69 57.8 51.96 57.06C50.13 56.28 48.47 55.4 47.03 54.43L46.89 54.33C45.04 52.84 44.03 50.71 43.97 48.17C43.9 45.74 44.71 43.41 46.32 41.28C47.58 39.53 49.03 38.29 50.63 37.58C52.09 36.94 53.49 36.54 54.79 36.41C55.41 36.35 55.99 36.32 56.53 36.32C57.07 36.32 57.64 36.35 58.14 36.42C58.79 36.51 59.22 36.56 59.42 36.57H59.71L59.99 36.65C61.38 37.06 62.82 37.82 64.4 38.99C65.52 39.82 66.67 41.32 66.58 43.99H91.13C91.86 40.61 92.09 37.34 91.8 34.23C91.47 30.71 90.5 27.49 88.92 24.66C87.34 21.83 85.18 19.38 82.51 17.37C79.82 15.35 76.57 13.85 72.81 12.9C69.85 12.09 66.77 11.68 63.66 11.68C62.73 11.68 61.77 11.72 60.83 11.79C56.7 12.11 52.61 13.06 48.68 14.6C44.74 16.16 40.91 18.31 37.3 21C33.7 23.69 30.4 26.91 27.52 30.56C24.45 34.53 22.14 38.73 20.65 43.05C19.16 47.35 18.44 51.57 18.5 55.59C18.57 59.55 19.41 63.3 21.02 66.74C22.61 70.13 24.93 73 27.94 75.25C30.33 77.05 32.84 78.49 35.41 79.55C38.11 80.66 40.76 81.67 43.36 82.57C44.76 83.12 46.09 83.62 47.36 84.06C48.73 84.54 50.01 85.08 51.27 85.73C52.9 86.67 54.16 87.78 55.02 89.04C55.84 90.24 56.41 91.44 56.73 92.6C57.06 93.81 57.14 95.01 56.98 96.18C56.84 97.18 56.7 97.97 56.53 98.61C56.36 99.24 56.1 100.03 55.72 101.02C55.31 102.1 54.65 103.23 53.77 104.38C52.9 105.52 51.79 106.64 50.46 107.69C49.1 108.77 47.43 109.69 45.53 110.43C43.04 111.43 40.58 111.94 38.22 111.94C37.95 111.94 37.68 111.94 37.42 111.92C34.67 111.79 32.25 110.9 30.34 109.36C29.12 108.49 27.97 107.02 26.83 104.86C25.87 103.05 25.59 100.83 25.99 98.1H1.57C0.110001 104.56 0.130003 110.58 1.65 116.01C3.27 121.8 6.45 126.58 11.11 130.21C13.79 132.29 16.84 133.85 20.17 134.84C23.56 135.85 27.17 136.36 30.87 136.36C33.74 136.36 36.75 136.06 39.81 135.47C42.85 134.88 45.98 133.93 49.12 132.63C57.08 129.39 63.99 124.57 69.65 118.31C75.3 112.07 79.15 105.09 81.1 97.58C83.08 89.95 82.9 83.02 80.55 76.99L80.56 77Z" fill="#FDFEFF"/>
<path d="M165.05 83.21C169.16 77.19 172.14 70.68 173.91 63.87C175.67 57.1 176.07 50.66 175.1 44.73C174.13 38.84 172 33.6 168.77 29.16C165.54 24.72 161.29 21.13 156.15 18.47C151 15.82 144.99 14.42 138.32 14.31H111.4L80.3096 134H104.62L109.74 114.3L111.28 114.28C118.11 114.17 124.93 112.78 131.57 110.12C138.25 107.45 144.52 103.78 150.23 99.21C155.93 94.64 160.92 89.26 165.05 83.21ZM131 38.76C134.41 38.88 137.5 39.67 140.18 41.11C142.86 42.54 145.06 44.45 146.72 46.78C147.39 47.72 147.94 48.74 148.42 49.81C136.87 60.46 134.52 60.27 125.76 52.63L129.37 38.71L130.99 38.77L131 38.76ZM118.7 79.78L125.67 52.95C134.05 62.59 133.27 64.45 118.7 79.78ZM137.9 82.05C135.2 84.24 132.18 86.04 128.93 87.4C125.63 88.78 122.22 89.54 118.82 89.66L116.11 89.75L118.66 79.93C134.18 65.18 135.96 64.46 145.78 73.03C145.52 73.45 145.28 73.87 145.01 74.27C143 77.23 140.61 79.85 137.9 82.04V82.05ZM145.93 72.79C138.31 64.06 138.09 61.69 148.63 50.24C149.24 51.7 149.7 53.27 149.97 54.95C150.46 58.03 150.26 61.31 149.38 64.71C148.65 67.52 147.48 70.22 145.93 72.78V72.79Z" fill="#FDFEFF"/>
<path d="M218.49 14.31L146.64 134H172.1L202.35 83.7C207.48 91.62 203.69 96.11 187.51 113.09C207.77 93.79 210.25 92.12 222 102.2L224.02 134H249.97L242.41 14.31H218.48H218.49ZM203.45 81.87L219.05 55.93L220.52 78.97C212.96 85.15 209.13 85.72 203.45 81.87ZM220.67 81.28L221.94 101.29C215.22 93.36 214.15 89.66 220.67 81.28Z" fill="#FDFEFF"/>
<path d="M343.34 76.05C347.42 70.68 350.34 64.69 352.02 58.25C353.53 52.42 353.73 46.82 352.61 41.6C351.49 36.41 349.22 31.81 345.88 27.93C342.5 24.03 338.14 20.86 332.9 18.52C327.64 16.17 321.55 14.93 314.84 14.82H287.92L256.96 134H281.27L289.34 102.92L290.79 102.82C292.39 102.71 293.93 102.6 295.42 102.48C296.85 102.37 298.32 102.21 299.79 101.99L301.43 101.75L313.08 134H342.33L326.92 91.12L328.22 90.24C334.14 86.23 339.23 81.46 343.35 76.05H343.34ZM327.45 59.24C326.76 61.89 325.45 64.4 323.55 66.71C321.7 68.95 319.42 70.95 316.75 72.64C314.11 74.31 311.18 75.67 308.04 76.67C304.87 77.68 301.62 78.26 298.4 78.37L295.69 78.47L305.89 39.21L307.51 39.27C310.71 39.39 313.71 39.98 316.42 41.01C319.16 42.06 321.49 43.48 323.35 45.24C325.26 47.05 326.61 49.16 327.36 51.51C328.13 53.9 328.16 56.51 327.45 59.24Z" fill="#FDFEFF"/>
<path d="M578.51 124.31L592.8 69.31C597.34 51.83 586.94 39.99 571.1 39.99C560.54 39.99 547.88 44.54 535.84 55.83L539.2 42.9C544.83 21.23 535.17 7.93001 522.61 3.01001C504.19 -3.90999 476.46 5.38001 472.44 20.86C470.45 28.51 475.04 34.7 482.69 34.7C490.34 34.7 498.14 28.51 500.13 20.86C502.12 13.21 497.53 7.02 489.88 7.02C489.15 7.02 488.42 7.02001 487.83 7.20001C497.9 2.10001 511.16 0.82001 521.59 4.83001C531.52 8.65001 538.95 17.94 538.89 32.88C538.6 39.62 532.82 44.35 525.29 45.99L507.91 49.81C508.67 51.81 514.07 52.72 512.32 59.46L495.48 124.3C493.68 131.22 487.85 131.95 486.05 133.95H522.47C521.71 131.95 516.26 131.22 518.06 124.3L535.14 58.55L536.06 57.82C543.63 51.81 550.4 48.89 556.46 48.71C566.84 48.71 573.55 56.54 570.24 69.29L555.95 124.29C554.15 131.21 548.32 131.94 546.52 133.94H582.94C582.19 131.94 576.73 131.21 578.53 124.29L578.51 124.31Z" fill="#FDFEFF"/>
<path d="M470.69 124.31L491.84 42.9L460.54 49.82C461.3 51.82 466.7 52.73 464.95 59.47L448.11 124.31C446.31 131.23 440.48 131.96 438.68 133.96H475.1C474.34 131.96 468.89 131.23 470.69 124.31Z" fill="#FDFEFF"/>
<path d="M674.42 43.44C669.16 41.25 662.57 39.98 654.92 39.98C629.79 39.98 609.22 52.55 603.92 72.94C600.42 86.42 605.28 96.43 616.3 101.72C599.24 105 581.82 122.3 585.13 136.87C589.06 153.99 610.26 150.89 628.79 146.16C640.48 143.25 649.63 147.25 646.89 157.82C644.48 167.11 633.31 177.85 620.49 180.22C636.98 179.86 661.51 170.93 667.19 149.08C673.06 126.5 655.26 116.48 634.07 123.04C620.83 127.05 608.95 131.42 604.01 124.5C599.83 118.85 603.88 105.38 618.79 102.65C623.87 104.83 630.371 105.75 637.841 105.75C662.971 105.75 683.49 93.36 688.79 72.97C692.34 59.31 687.11 49.29 675.91 44.01C682.1 34.9 691.32 37.27 696.45 43.46L703.031 31.44C692.831 26.52 680.65 33.44 674.41 43.46L674.42 43.44ZM666.22 72.95C662.72 86.43 652.301 104.09 638.281 104.09C624.261 104.09 623.021 86.42 626.521 72.95C630.021 59.47 640.3 41.62 654.51 41.62C668.72 41.62 669.73 59.47 666.23 72.95H666.22Z" fill="#FDFEFF"/>
<path d="M444.02 127.61L402.71 73.79L470.16 21.27C470.22 20.95 470.28 20.64 470.36 20.32C470.92 18.18 471.9 16.11 473.25 14.14H444.94L390.68 56.49L401.68 14.14H377.37L346.24 133.99H370.55L381.32 92.54L412.9 133.99H435.78L437.1 132.52C437.87 131.66 438.95 131.07 440.08 130.45C441.42 129.72 442.85 128.91 444.03 127.61H444.02Z" fill="#FDFEFF"/>
</svg>
